<svg width="86" height="86" viewBox="0 0 86 86" fill="none" xmlns="http://www.w3.org/2000/svg">
<circle cx="43" cy="43" r="42.5" fill="#12B76A" stroke="#12B76A"/>
<path d="M43 42C41.6739 42 40.4021 41.4732 39.4645 40.5355C38.5268 39.5979 38 38.3261 38 37C38 35.6739 38.5268 34.4021 39.4645 33.4645C40.4021 32.5268 41.6739 32 43 32C44.3261 32 45.5979 32.5268 46.5355 33.4645C47.4732 34.4021 48 35.6739 48 37C48 37.6566 47.8707 38.3068 47.6194 38.9134C47.3681 39.52 46.9998 40.0712 46.5355 40.5355C46.0712 40.9998 45.52 41.3681 44.9134 41.6194C44.3068 41.8707 43.6566 42 43 42ZM43 23C39.287 23 35.726 24.475 33.1005 27.1005C30.475 29.726 29 33.287 29 37C29 47.5 43 63 43 63C43 63 57 47.5 57 37C57 33.287 55.525 29.726 52.8995 27.1005C50.274 24.475 46.713 23 43 23Z" fill="white"/>
</svg>
