<svg width="86" height="86" viewBox="0 0 86 86" fill="none" xmlns="http://www.w3.org/2000/svg">
<circle cx="43" cy="43" r="42.5" fill="#12B76A" stroke="#12B76A"/>
<path fill-rule="evenodd" clip-rule="evenodd" d="M29 59C27.4087 59 25.8826 58.3679 24.7574 57.2426C23.6321 56.1174 23 54.5913 23 53V33C23 31.4087 23.6321 29.8826 24.7574 28.7574C25.8826 27.6321 27.4087 27 29 27H57C58.5913 27 60.1174 27.6321 61.2426 28.7574C62.3679 29.8826 63 31.4087 63 33V53C63 54.5913 62.3679 56.1174 61.2426 57.2426C60.1174 58.3679 58.5913 59 57 59H29ZM34.25 35.44C34.0463 35.266 33.8097 35.1348 33.5542 35.054C33.2988 34.9732 33.0297 34.9446 32.763 34.9698C32.4963 34.995 32.2374 35.0736 32.0016 35.2008C31.7658 35.328 31.558 35.5013 31.3905 35.7103C31.223 35.9194 31.0992 36.16 31.0264 36.4178C30.9537 36.6757 30.9335 36.9455 30.967 37.2113C31.0005 37.4771 31.0871 37.7334 31.2216 37.9651C31.3561 38.1968 31.5358 38.3991 31.75 38.56L39.25 44.562C40.3142 45.414 41.6368 45.8783 43 45.8783C44.3632 45.8783 45.6858 45.414 46.75 44.562L54.25 38.562C54.4551 38.3978 54.6259 38.1949 54.7526 37.9647C54.8793 37.7346 54.9594 37.4817 54.9884 37.2206C55.0174 36.9595 54.9946 36.6952 54.9215 36.4429C54.8483 36.1906 54.7262 35.9551 54.562 35.75C54.3978 35.5449 54.1949 35.3741 53.9647 35.2474C53.7346 35.1207 53.4817 35.0406 53.2206 35.0116C52.9595 34.9826 52.6952 35.0054 52.4429 35.0785C52.1906 35.1517 51.9551 35.2738 51.75 35.438L44.25 41.438C43.8953 41.722 43.4544 41.8768 43 41.8768C42.5456 41.8768 42.1047 41.722 41.75 41.438L34.25 35.44Z" fill="#FCFCFD"/>
</svg>
