<svg width="160" height="161" viewBox="0 0 160 161" fill="none" xmlns="http://www.w3.org/2000/svg">
<g clip-path="url(#clip0_3583_7065)">
<path d="M1.40351 81.9035C0.629112 81.9035 0 81.2744 0 80.5C0 36.3882 35.8882 0.5 80 0.5C80.7744 0.5 81.4035 1.12911 81.4035 1.90351C81.4035 2.67791 80.7744 3.30702 80 3.30702C37.4342 3.30702 2.80702 37.9342 2.80702 80.5C2.80702 81.2744 2.17791 81.9035 1.40351 81.9035Z" fill="#344054"/>
<path d="M88.4215 3.30702H85.6144C84.84 3.30702 84.2109 2.67791 84.2109 1.90351C84.2109 1.12911 84.84 0.5 85.6144 0.5H88.4215C89.1959 0.5 89.825 1.12911 89.825 1.90351C89.825 2.67791 89.1959 3.30702 88.4215 3.30702Z" fill="#344054"/>
<path d="M79.9992 160.5C79.2248 160.5 78.5957 159.871 78.5957 159.097C78.5957 158.322 79.2248 157.693 79.9992 157.693C122.562 157.693 157.192 123.066 157.192 80.5002C157.192 79.7258 157.821 79.0967 158.596 79.0967C159.37 79.0967 159.999 79.7258 159.999 80.5002C159.999 124.612 124.111 160.5 79.9992 160.5Z" fill="#344054"/>
<path d="M74.3863 160.5H71.5793C70.8049 160.5 70.1758 159.871 70.1758 159.097C70.1758 158.322 70.8049 157.693 71.5793 157.693H74.3863C75.1607 157.693 75.7898 158.322 75.7898 159.097C75.7898 159.871 75.1607 160.5 74.3863 160.5Z" fill="#344054"/>
<path d="M80.0004 149.272C42.081 149.272 11.2285 118.42 11.2285 80.5004C11.2285 42.581 42.081 11.7285 80.0004 11.7285C117.923 11.7285 148.772 42.581 148.772 80.5004C148.772 118.42 117.923 149.272 80.0004 149.272ZM80.0004 14.5355C43.6271 14.5355 14.0355 44.1271 14.0355 80.5004C14.0355 116.874 43.6271 146.465 80.0004 146.465C116.374 146.465 145.965 116.874 145.965 80.5004C145.965 44.1271 116.374 14.5355 80.0004 14.5355Z" fill="#344054"/>
<path d="M80.0009 29.9736C52.0966 29.9736 29.4746 52.5956 29.4746 80.4999C29.4746 108.404 52.0966 131.026 80.0009 131.026C107.905 131.026 130.527 108.404 130.527 80.4999C130.527 52.5956 107.905 29.9736 80.0009 29.9736Z" fill="#32D583"/>
<path d="M80.0001 132.43C51.3653 132.43 28.0703 109.135 28.0703 80.5001C28.0703 51.8653 51.3653 28.5703 80.0001 28.5703C108.635 28.5703 131.93 51.8653 131.93 80.5001C131.93 109.135 108.635 132.43 80.0001 132.43ZM80.0001 31.3773C52.9154 31.3773 30.8773 53.4154 30.8773 80.5001C30.8773 107.585 52.9154 129.623 80.0001 129.623C107.085 129.623 129.123 107.585 129.123 80.5001C129.123 53.4154 107.085 31.3773 80.0001 31.3773Z" fill="#344054"/>
<path d="M138.948 8.92128H127.72C126.946 8.92128 126.316 8.29216 126.316 7.51777C126.316 6.74337 126.946 6.11426 127.72 6.11426H138.948C139.722 6.11426 140.351 6.74337 140.351 7.51777C140.351 8.29216 139.722 8.92128 138.948 8.92128Z" fill="#344054"/>
<path d="M133.333 14.5351C132.559 14.5351 131.93 13.906 131.93 13.1316V1.90351C131.93 1.12911 132.559 0.5 133.333 0.5C134.108 0.5 134.737 1.12911 134.737 1.90351V13.1316C134.737 13.906 134.108 14.5351 133.333 14.5351Z" fill="#344054"/>
<path d="M158.596 27.1664H147.368C146.594 27.1664 145.965 26.5373 145.965 25.7629C145.965 24.9885 146.594 24.3594 147.368 24.3594H158.596C159.371 24.3594 160 24.9885 160 25.7629C160 26.5373 159.371 27.1664 158.596 27.1664Z" fill="#344054"/>
<path d="M152.982 32.7812C152.207 32.7812 151.578 32.1521 151.578 31.3777V20.1496C151.578 19.3752 152.207 18.7461 152.982 18.7461C153.756 18.7461 154.385 19.3752 154.385 20.1496V31.3777C154.385 32.1521 153.756 32.7812 152.982 32.7812Z" fill="#344054"/>
<path d="M71.5643 102.574C70.4856 102.574 69.4083 102.164 68.586 101.342L49.7277 82.4877C48.083 80.8457 48.083 78.1785 49.7277 76.5337C51.3724 74.889 54.0369 74.889 55.6816 76.5337L71.5616 92.4137L104.311 59.6642C105.956 58.0195 108.619 58.0195 110.265 59.6642C111.91 61.3062 111.91 63.9748 110.265 65.6182L74.5427 101.339C73.7203 102.161 72.6416 102.574 71.5643 102.574Z" fill="white"/>
<path d="M71.5661 103.977C70.0666 103.977 68.6576 103.394 67.5968 102.333L48.7385 83.4785C47.6776 82.4204 47.0938 81.0114 47.0938 79.5093C47.0938 78.0098 47.6776 76.6008 48.7385 75.54C50.8616 73.4182 54.5554 73.4182 56.6771 75.54L71.5661 90.4262L103.322 58.6704C105.444 56.5474 109.137 56.5474 111.26 58.6704C112.321 59.7285 112.905 61.1403 112.905 62.6397C112.905 64.1378 112.321 65.5495 111.26 66.6077L75.5354 102.333C74.4731 103.394 73.0641 103.977 71.5661 103.977ZM52.7078 76.6995C51.9581 76.6995 51.2536 76.9914 50.7231 77.5219C50.1927 78.0523 49.9008 78.7568 49.9008 79.5065C49.9008 80.2562 50.1927 80.9607 50.7231 81.4912L69.5814 100.345C70.6423 101.408 72.4899 101.408 73.5507 100.345L109.279 64.6203C109.806 64.0898 110.101 63.3853 110.101 62.637C110.101 61.8873 109.809 61.1828 109.279 60.6523C108.181 59.5572 106.407 59.5572 105.309 60.6523L72.5598 93.4018C72.0115 93.9487 71.122 93.9487 70.5751 93.4018L54.6952 77.5219C54.162 76.9914 53.4575 76.6995 52.7078 76.6995Z" fill="#344054"/>
</g>
<defs>
<clipPath id="clip0_3583_7065">
<rect width="160" height="160" fill="white" transform="translate(0 0.5)"/>
</clipPath>
</defs>
</svg>
