<svg width="414" height="208" viewBox="0 0 414 208" fill="none" xmlns="http://www.w3.org/2000/svg">
<rect width="414" height="208" fill="#F5F5F5"/>
<g clip-path="url(#clip0_1272_59221)">
<rect width="1440" height="1024" transform="translate(-513 -384)" fill="white"/>
<rect width="1440" height="822" transform="translate(-513 -182)" fill="#F9FAFB"/>
<g clip-path="url(#clip1_1272_59221)">
<rect x="-73" y="-39.5" width="560" height="537" rx="16" fill="white"/>
<g clip-path="url(#clip2_1272_59221)">
<path d="M128.404 81.9035C127.629 81.9035 127 81.2744 127 80.5C127 36.3882 162.888 0.5 207 0.5C207.774 0.5 208.404 1.12911 208.404 1.90351C208.404 2.67791 207.774 3.30702 207 3.30702C164.434 3.30702 129.807 37.9342 129.807 80.5C129.807 81.2744 129.178 81.9035 128.404 81.9035Z" fill="#344054"/>
<path d="M215.421 3.30702H212.614C211.84 3.30702 211.211 2.67791 211.211 1.90351C211.211 1.12911 211.84 0.5 212.614 0.5H215.421C216.196 0.5 216.825 1.12911 216.825 1.90351C216.825 2.67791 216.196 3.30702 215.421 3.30702Z" fill="#344054"/>
<path d="M206.999 160.5C206.225 160.5 205.596 159.871 205.596 159.097C205.596 158.322 206.225 157.693 206.999 157.693C249.562 157.693 284.192 123.066 284.192 80.5002C284.192 79.7258 284.821 79.0967 285.596 79.0967C286.37 79.0967 286.999 79.7258 286.999 80.5002C286.999 124.612 251.111 160.5 206.999 160.5Z" fill="#344054"/>
<path d="M201.386 160.5H198.579C197.805 160.5 197.176 159.871 197.176 159.097C197.176 158.322 197.805 157.693 198.579 157.693H201.386C202.161 157.693 202.79 158.322 202.79 159.097C202.79 159.871 202.161 160.5 201.386 160.5Z" fill="#344054"/>
<path d="M207 149.272C169.081 149.272 138.229 118.42 138.229 80.5004C138.229 42.581 169.081 11.7285 207 11.7285C244.923 11.7285 275.772 42.581 275.772 80.5004C275.772 118.42 244.923 149.272 207 149.272ZM207 14.5355C170.627 14.5355 141.036 44.1271 141.036 80.5004C141.036 116.874 170.627 146.465 207 146.465C243.374 146.465 272.965 116.874 272.965 80.5004C272.965 44.1271 243.374 14.5355 207 14.5355Z" fill="#344054"/>
<path d="M207.001 29.9736C179.097 29.9736 156.475 52.5956 156.475 80.4999C156.475 108.404 179.097 131.026 207.001 131.026C234.905 131.026 257.527 108.404 257.527 80.4999C257.527 52.5956 234.905 29.9736 207.001 29.9736Z" fill="#32D583"/>
<path d="M207 132.43C178.365 132.43 155.07 109.135 155.07 80.5001C155.07 51.8653 178.365 28.5703 207 28.5703C235.635 28.5703 258.93 51.8653 258.93 80.5001C258.93 109.135 235.635 132.43 207 132.43ZM207 31.3773C179.915 31.3773 157.877 53.4154 157.877 80.5001C157.877 107.585 179.915 129.623 207 129.623C234.085 129.623 256.123 107.585 256.123 80.5001C256.123 53.4154 234.085 31.3773 207 31.3773Z" fill="#344054"/>
<path d="M265.948 8.92128H254.72C253.946 8.92128 253.316 8.29216 253.316 7.51777C253.316 6.74337 253.946 6.11426 254.72 6.11426H265.948C266.722 6.11426 267.351 6.74337 267.351 7.51777C267.351 8.29216 266.722 8.92128 265.948 8.92128Z" fill="#344054"/>
<path d="M260.333 14.5351C259.559 14.5351 258.93 13.906 258.93 13.1316V1.90351C258.93 1.12911 259.559 0.5 260.333 0.5C261.108 0.5 261.737 1.12911 261.737 1.90351V13.1316C261.737 13.906 261.108 14.5351 260.333 14.5351Z" fill="#344054"/>
<path d="M285.596 27.1664H274.368C273.594 27.1664 272.965 26.5373 272.965 25.7629C272.965 24.9885 273.594 24.3594 274.368 24.3594H285.596C286.371 24.3594 287 24.9885 287 25.7629C287 26.5373 286.371 27.1664 285.596 27.1664Z" fill="#344054"/>
<path d="M279.982 32.7812C279.207 32.7812 278.578 32.1521 278.578 31.3777V20.1496C278.578 19.3752 279.207 18.7461 279.982 18.7461C280.756 18.7461 281.385 19.3752 281.385 20.1496V31.3777C281.385 32.1521 280.756 32.7812 279.982 32.7812Z" fill="#344054"/>
<path d="M198.564 102.574C197.486 102.574 196.408 102.164 195.586 101.342L176.728 82.4877C175.083 80.8457 175.083 78.1785 176.728 76.5337C178.372 74.889 181.037 74.889 182.682 76.5337L198.562 92.4137L231.311 59.6642C232.956 58.0195 235.619 58.0195 237.265 59.6642C238.91 61.3062 238.91 63.9748 237.265 65.6182L201.543 101.339C200.72 102.161 199.642 102.574 198.564 102.574Z" fill="white"/>
<path d="M198.566 103.977C197.067 103.977 195.658 103.394 194.597 102.333L175.738 83.4785C174.678 82.4204 174.094 81.0114 174.094 79.5093C174.094 78.0098 174.678 76.6008 175.738 75.54C177.862 73.4182 181.555 73.4182 183.677 75.54L198.566 90.4262L230.322 58.6704C232.444 56.5474 236.137 56.5474 238.26 58.6704C239.321 59.7285 239.905 61.1403 239.905 62.6397C239.905 64.1378 239.321 65.5495 238.26 66.6077L202.535 102.333C201.473 103.394 200.064 103.977 198.566 103.977ZM179.708 76.6995C178.958 76.6995 178.254 76.9914 177.723 77.5219C177.193 78.0523 176.901 78.7568 176.901 79.5065C176.901 80.2562 177.193 80.9607 177.723 81.4912L196.581 100.345C197.642 101.408 199.49 101.408 200.551 100.345L236.279 64.6203C236.806 64.0898 237.101 63.3853 237.101 62.637C237.101 61.8873 236.809 61.1828 236.279 60.6523C235.181 59.5572 233.407 59.5572 232.309 60.6523L199.56 93.4018C199.012 93.9487 198.122 93.9487 197.575 93.4018L181.695 77.5219C181.162 76.9914 180.458 76.6995 179.708 76.6995Z" fill="#344054"/>
</g>
<path d="M118.472 197.197H114.771V195.254H118.472C119.117 195.254 119.638 195.15 120.035 194.941C120.432 194.733 120.722 194.447 120.904 194.082C121.093 193.711 121.187 193.288 121.187 192.812C121.187 192.363 121.093 191.943 120.904 191.553C120.722 191.156 120.432 190.837 120.035 190.596C119.638 190.355 119.117 190.234 118.472 190.234H115.523V202.5H113.072V188.281H118.472C119.573 188.281 120.507 188.477 121.275 188.867C122.05 189.251 122.639 189.785 123.043 190.469C123.446 191.146 123.648 191.921 123.648 192.793C123.648 193.711 123.446 194.499 123.043 195.156C122.639 195.814 122.05 196.318 121.275 196.67C120.507 197.021 119.573 197.197 118.472 197.197ZM131.601 200.381V195.342C131.601 194.964 131.532 194.639 131.396 194.365C131.259 194.092 131.051 193.88 130.771 193.73C130.497 193.581 130.152 193.506 129.736 193.506C129.351 193.506 129.019 193.571 128.739 193.701C128.46 193.831 128.241 194.007 128.085 194.229C127.929 194.45 127.851 194.701 127.851 194.98H125.507C125.507 194.564 125.608 194.16 125.81 193.77C126.012 193.379 126.305 193.031 126.689 192.725C127.073 192.419 127.532 192.178 128.066 192.002C128.599 191.826 129.198 191.738 129.863 191.738C130.657 191.738 131.36 191.872 131.972 192.139C132.59 192.406 133.075 192.809 133.427 193.35C133.785 193.883 133.964 194.554 133.964 195.361V200.059C133.964 200.54 133.997 200.973 134.062 201.357C134.133 201.735 134.234 202.064 134.364 202.344V202.5H131.952C131.842 202.246 131.754 201.924 131.689 201.533C131.63 201.136 131.601 200.752 131.601 200.381ZM131.943 196.074L131.962 197.529H130.273C129.836 197.529 129.452 197.572 129.12 197.656C128.788 197.734 128.512 197.852 128.29 198.008C128.069 198.164 127.903 198.353 127.792 198.574C127.682 198.796 127.626 199.046 127.626 199.326C127.626 199.606 127.691 199.863 127.821 200.098C127.952 200.326 128.14 200.505 128.388 200.635C128.642 200.765 128.948 200.83 129.306 200.83C129.788 200.83 130.208 200.732 130.566 200.537C130.93 200.335 131.217 200.091 131.425 199.805C131.633 199.512 131.744 199.235 131.757 198.975L132.519 200.02C132.441 200.286 132.307 200.573 132.118 200.879C131.93 201.185 131.682 201.478 131.376 201.758C131.077 202.031 130.715 202.256 130.292 202.432C129.876 202.607 129.394 202.695 128.847 202.695C128.157 202.695 127.542 202.559 127.001 202.285C126.461 202.005 126.038 201.631 125.732 201.162C125.426 200.687 125.273 200.15 125.273 199.551C125.273 198.991 125.377 198.496 125.585 198.066C125.8 197.63 126.113 197.266 126.523 196.973C126.939 196.68 127.447 196.458 128.046 196.309C128.645 196.152 129.329 196.074 130.097 196.074H131.943ZM139.485 201.348L142.356 191.934H144.876L140.637 204.111C140.54 204.372 140.413 204.655 140.257 204.961C140.1 205.267 139.895 205.557 139.641 205.83C139.394 206.11 139.085 206.335 138.714 206.504C138.343 206.68 137.893 206.768 137.366 206.768C137.158 206.768 136.956 206.748 136.761 206.709C136.572 206.676 136.393 206.641 136.223 206.602L136.214 204.805C136.279 204.811 136.357 204.818 136.448 204.824C136.546 204.831 136.624 204.834 136.682 204.834C137.073 204.834 137.399 204.785 137.659 204.688C137.919 204.596 138.131 204.447 138.294 204.238C138.463 204.03 138.606 203.75 138.723 203.398L139.485 201.348ZM137.864 191.934L140.374 199.844L140.794 202.324L139.163 202.744L135.325 191.934H137.864ZM148.727 194.082V202.5H146.373V191.934H148.59L148.727 194.082ZM148.346 196.826L147.545 196.816C147.545 196.087 147.636 195.413 147.819 194.795C148.001 194.176 148.268 193.639 148.62 193.184C148.971 192.721 149.407 192.367 149.928 192.119C150.455 191.865 151.064 191.738 151.754 191.738C152.236 191.738 152.676 191.81 153.073 191.953C153.476 192.09 153.825 192.308 154.118 192.607C154.417 192.907 154.645 193.291 154.801 193.76C154.964 194.229 155.045 194.795 155.045 195.459V202.5H152.692V195.664C152.692 195.15 152.614 194.746 152.457 194.453C152.308 194.16 152.09 193.952 151.803 193.828C151.523 193.698 151.188 193.633 150.797 193.633C150.355 193.633 149.977 193.717 149.664 193.887C149.358 194.056 149.108 194.287 148.913 194.58C148.717 194.873 148.574 195.212 148.483 195.596C148.392 195.98 148.346 196.39 148.346 196.826ZM154.899 196.201L153.795 196.445C153.795 195.807 153.883 195.205 154.059 194.639C154.241 194.066 154.505 193.564 154.85 193.135C155.202 192.699 155.635 192.357 156.149 192.109C156.663 191.862 157.252 191.738 157.916 191.738C158.457 191.738 158.939 191.813 159.362 191.963C159.791 192.106 160.156 192.334 160.455 192.646C160.755 192.959 160.983 193.366 161.139 193.867C161.295 194.362 161.373 194.961 161.373 195.664V202.5H159.01V195.654C159.01 195.12 158.932 194.707 158.776 194.414C158.626 194.121 158.411 193.919 158.131 193.809C157.851 193.691 157.516 193.633 157.125 193.633C156.761 193.633 156.439 193.701 156.159 193.838C155.885 193.968 155.654 194.154 155.465 194.395C155.276 194.629 155.133 194.899 155.036 195.205C154.944 195.511 154.899 195.843 154.899 196.201ZM168.604 202.695C167.822 202.695 167.116 202.568 166.484 202.314C165.859 202.054 165.326 201.693 164.883 201.23C164.447 200.768 164.111 200.225 163.877 199.6C163.643 198.975 163.525 198.301 163.525 197.578V197.188C163.525 196.361 163.646 195.612 163.887 194.941C164.128 194.271 164.463 193.698 164.893 193.223C165.322 192.741 165.83 192.373 166.416 192.119C167.002 191.865 167.637 191.738 168.32 191.738C169.076 191.738 169.736 191.865 170.303 192.119C170.869 192.373 171.338 192.731 171.709 193.193C172.087 193.649 172.367 194.193 172.549 194.824C172.738 195.456 172.832 196.152 172.832 196.914V197.92H164.668V196.23H170.508V196.045C170.495 195.622 170.41 195.225 170.254 194.854C170.104 194.482 169.873 194.183 169.561 193.955C169.248 193.727 168.831 193.613 168.311 193.613C167.92 193.613 167.572 193.698 167.266 193.867C166.966 194.03 166.715 194.268 166.514 194.58C166.312 194.893 166.156 195.27 166.045 195.713C165.941 196.149 165.889 196.641 165.889 197.188V197.578C165.889 198.04 165.951 198.47 166.074 198.867C166.204 199.258 166.393 199.6 166.641 199.893C166.888 200.186 167.188 200.417 167.539 200.586C167.891 200.749 168.291 200.83 168.74 200.83C169.307 200.83 169.811 200.716 170.254 200.488C170.697 200.26 171.081 199.938 171.406 199.521L172.646 200.723C172.419 201.055 172.122 201.374 171.758 201.68C171.393 201.979 170.947 202.223 170.42 202.412C169.899 202.601 169.294 202.695 168.604 202.695ZM177.152 194.189V202.5H174.798V191.934H177.015L177.152 194.189ZM176.732 196.826L175.97 196.816C175.977 196.068 176.081 195.381 176.283 194.756C176.491 194.131 176.778 193.594 177.142 193.145C177.513 192.695 177.956 192.35 178.47 192.109C178.985 191.862 179.558 191.738 180.189 191.738C180.697 191.738 181.156 191.81 181.566 191.953C181.983 192.09 182.337 192.314 182.63 192.627C182.93 192.939 183.158 193.346 183.314 193.848C183.47 194.342 183.548 194.951 183.548 195.674V202.5H181.185V195.664C181.185 195.156 181.11 194.756 180.961 194.463C180.817 194.163 180.606 193.952 180.326 193.828C180.052 193.698 179.711 193.633 179.3 193.633C178.897 193.633 178.535 193.717 178.216 193.887C177.897 194.056 177.627 194.287 177.406 194.58C177.191 194.873 177.025 195.212 176.908 195.596C176.791 195.98 176.732 196.39 176.732 196.826ZM190.945 191.934V193.652H184.988V191.934H190.945ZM186.706 189.346H189.06V199.58C189.06 199.906 189.105 200.156 189.196 200.332C189.294 200.501 189.428 200.615 189.597 200.674C189.766 200.732 189.965 200.762 190.193 200.762C190.355 200.762 190.512 200.752 190.661 200.732C190.811 200.713 190.932 200.693 191.023 200.674L191.032 202.471C190.837 202.529 190.609 202.581 190.349 202.627C190.095 202.673 189.802 202.695 189.47 202.695C188.93 202.695 188.451 202.601 188.034 202.412C187.618 202.217 187.292 201.901 187.058 201.465C186.823 201.029 186.706 200.449 186.706 199.727V189.346ZM205.756 198.838C205.756 198.545 205.711 198.285 205.62 198.057C205.535 197.829 205.382 197.62 205.161 197.432C204.939 197.243 204.627 197.061 204.223 196.885C203.826 196.702 203.318 196.517 202.7 196.328C202.023 196.12 201.398 195.889 200.825 195.635C200.258 195.374 199.763 195.075 199.34 194.736C198.917 194.391 198.588 193.997 198.354 193.555C198.12 193.105 198.002 192.588 198.002 192.002C198.002 191.423 198.123 190.895 198.364 190.42C198.611 189.945 198.959 189.535 199.409 189.189C199.864 188.838 200.401 188.568 201.02 188.379C201.638 188.184 202.322 188.086 203.071 188.086C204.125 188.086 205.034 188.281 205.795 188.672C206.564 189.062 207.153 189.587 207.563 190.244C207.98 190.902 208.188 191.628 208.188 192.422H205.756C205.756 191.953 205.655 191.54 205.454 191.182C205.258 190.817 204.959 190.531 204.555 190.322C204.158 190.114 203.653 190.01 203.041 190.01C202.462 190.01 201.98 190.098 201.596 190.273C201.212 190.449 200.926 190.687 200.737 190.986C200.548 191.286 200.454 191.624 200.454 192.002C200.454 192.269 200.515 192.513 200.639 192.734C200.763 192.949 200.952 193.151 201.205 193.34C201.459 193.522 201.778 193.695 202.163 193.857C202.547 194.02 202.999 194.176 203.52 194.326C204.308 194.561 204.995 194.821 205.58 195.107C206.166 195.387 206.655 195.706 207.045 196.064C207.436 196.423 207.729 196.829 207.924 197.285C208.12 197.734 208.217 198.245 208.217 198.818C208.217 199.417 208.097 199.958 207.856 200.439C207.615 200.915 207.27 201.322 206.821 201.66C206.378 201.992 205.844 202.249 205.219 202.432C204.601 202.607 203.911 202.695 203.149 202.695C202.465 202.695 201.791 202.604 201.127 202.422C200.47 202.24 199.871 201.963 199.33 201.592C198.79 201.214 198.36 200.745 198.041 200.186C197.722 199.619 197.563 198.958 197.563 198.203H200.014C200.014 198.665 200.092 199.059 200.248 199.385C200.411 199.71 200.636 199.977 200.922 200.186C201.209 200.387 201.541 200.537 201.918 200.635C202.302 200.732 202.713 200.781 203.149 200.781C203.722 200.781 204.2 200.7 204.584 200.537C204.975 200.374 205.268 200.146 205.463 199.854C205.659 199.561 205.756 199.222 205.756 198.838ZM216.658 200.01V191.934H219.021V202.5H216.795L216.658 200.01ZM216.99 197.812L217.781 197.793C217.781 198.503 217.703 199.157 217.547 199.756C217.391 200.348 217.15 200.866 216.824 201.309C216.499 201.745 216.082 202.087 215.574 202.334C215.066 202.575 214.458 202.695 213.748 202.695C213.234 202.695 212.762 202.62 212.332 202.471C211.902 202.321 211.531 202.09 211.219 201.777C210.913 201.465 210.675 201.058 210.506 200.557C210.337 200.055 210.252 199.456 210.252 198.76V191.934H212.605V198.779C212.605 199.163 212.651 199.486 212.742 199.746C212.833 200 212.957 200.205 213.113 200.361C213.27 200.518 213.452 200.628 213.66 200.693C213.868 200.758 214.09 200.791 214.324 200.791C214.995 200.791 215.522 200.661 215.906 200.4C216.297 200.133 216.574 199.775 216.736 199.326C216.906 198.877 216.99 198.372 216.99 197.812ZM225.9 200.82C226.284 200.82 226.629 200.745 226.935 200.596C227.248 200.439 227.498 200.225 227.687 199.951C227.882 199.678 227.99 199.362 228.009 199.004H230.226C230.213 199.688 230.011 200.309 229.621 200.869C229.23 201.429 228.712 201.875 228.068 202.207C227.423 202.533 226.711 202.695 225.929 202.695C225.122 202.695 224.419 202.559 223.82 202.285C223.221 202.005 222.723 201.621 222.326 201.133C221.929 200.645 221.629 200.081 221.427 199.443C221.232 198.805 221.134 198.122 221.134 197.393V197.051C221.134 196.322 221.232 195.638 221.427 195C221.629 194.355 221.929 193.789 222.326 193.301C222.723 192.812 223.221 192.432 223.82 192.158C224.419 191.878 225.119 191.738 225.92 191.738C226.766 191.738 227.508 191.908 228.146 192.246C228.784 192.578 229.285 193.044 229.65 193.643C230.021 194.235 230.213 194.925 230.226 195.713H228.009C227.99 195.322 227.892 194.971 227.716 194.658C227.547 194.339 227.306 194.085 226.994 193.896C226.688 193.708 226.32 193.613 225.89 193.613C225.415 193.613 225.021 193.711 224.709 193.906C224.396 194.095 224.152 194.355 223.976 194.688C223.8 195.013 223.673 195.381 223.595 195.791C223.524 196.195 223.488 196.615 223.488 197.051V197.393C223.488 197.829 223.524 198.252 223.595 198.662C223.667 199.072 223.791 199.44 223.966 199.766C224.149 200.085 224.396 200.342 224.709 200.537C225.021 200.726 225.418 200.82 225.9 200.82ZM236.499 200.82C236.883 200.82 237.228 200.745 237.534 200.596C237.847 200.439 238.098 200.225 238.286 199.951C238.482 199.678 238.589 199.362 238.609 199.004H240.825C240.812 199.688 240.611 200.309 240.22 200.869C239.829 201.429 239.312 201.875 238.667 202.207C238.023 202.533 237.31 202.695 236.529 202.695C235.721 202.695 235.018 202.559 234.419 202.285C233.82 202.005 233.322 201.621 232.925 201.133C232.528 200.645 232.228 200.081 232.027 199.443C231.831 198.805 231.734 198.122 231.734 197.393V197.051C231.734 196.322 231.831 195.638 232.027 195C232.228 194.355 232.528 193.789 232.925 193.301C233.322 192.812 233.82 192.432 234.419 192.158C235.018 191.878 235.718 191.738 236.519 191.738C237.365 191.738 238.107 191.908 238.745 192.246C239.383 192.578 239.885 193.044 240.249 193.643C240.62 194.235 240.812 194.925 240.825 195.713H238.609C238.589 195.322 238.491 194.971 238.316 194.658C238.146 194.339 237.905 194.085 237.593 193.896C237.287 193.708 236.919 193.613 236.489 193.613C236.014 193.613 235.62 193.711 235.308 193.906C234.995 194.095 234.751 194.355 234.575 194.688C234.4 195.013 234.273 195.381 234.195 195.791C234.123 196.195 234.087 196.615 234.087 197.051V197.393C234.087 197.829 234.123 198.252 234.195 198.662C234.266 199.072 234.39 199.44 234.566 199.766C234.748 200.085 234.995 200.342 235.308 200.537C235.62 200.726 236.017 200.82 236.499 200.82ZM247.44 202.695C246.659 202.695 245.953 202.568 245.321 202.314C244.696 202.054 244.162 201.693 243.72 201.23C243.283 200.768 242.948 200.225 242.714 199.6C242.479 198.975 242.362 198.301 242.362 197.578V197.188C242.362 196.361 242.483 195.612 242.723 194.941C242.964 194.271 243.3 193.698 243.729 193.223C244.159 192.741 244.667 192.373 245.253 192.119C245.839 191.865 246.473 191.738 247.157 191.738C247.912 191.738 248.573 191.865 249.139 192.119C249.706 192.373 250.175 192.731 250.546 193.193C250.923 193.649 251.203 194.193 251.386 194.824C251.574 195.456 251.669 196.152 251.669 196.914V197.92H243.505V196.23H249.345V196.045C249.332 195.622 249.247 195.225 249.091 194.854C248.941 194.482 248.71 194.183 248.397 193.955C248.085 193.727 247.668 193.613 247.147 193.613C246.757 193.613 246.408 193.698 246.102 193.867C245.803 194.03 245.552 194.268 245.35 194.58C245.149 194.893 244.992 195.27 244.882 195.713C244.777 196.149 244.725 196.641 244.725 197.188V197.578C244.725 198.04 244.787 198.47 244.911 198.867C245.041 199.258 245.23 199.6 245.477 199.893C245.725 200.186 246.024 200.417 246.376 200.586C246.727 200.749 247.128 200.83 247.577 200.83C248.143 200.83 248.648 200.716 249.091 200.488C249.533 200.26 249.917 199.938 250.243 199.521L251.483 200.723C251.255 201.055 250.959 201.374 250.595 201.68C250.23 201.979 249.784 202.223 249.257 202.412C248.736 202.601 248.13 202.695 247.44 202.695ZM259.582 199.639C259.582 199.404 259.524 199.193 259.407 199.004C259.289 198.809 259.065 198.633 258.733 198.477C258.407 198.32 257.926 198.177 257.288 198.047C256.728 197.923 256.213 197.777 255.745 197.607C255.282 197.432 254.885 197.22 254.553 196.973C254.221 196.725 253.964 196.432 253.782 196.094C253.599 195.755 253.508 195.365 253.508 194.922C253.508 194.492 253.603 194.085 253.791 193.701C253.98 193.317 254.25 192.979 254.602 192.686C254.954 192.393 255.38 192.161 255.881 191.992C256.389 191.823 256.955 191.738 257.58 191.738C258.466 191.738 259.224 191.888 259.856 192.188C260.494 192.48 260.982 192.881 261.321 193.389C261.659 193.89 261.829 194.456 261.829 195.088H259.475C259.475 194.808 259.403 194.548 259.26 194.307C259.123 194.059 258.915 193.861 258.635 193.711C258.355 193.555 258.004 193.477 257.58 193.477C257.177 193.477 256.842 193.542 256.575 193.672C256.314 193.796 256.119 193.958 255.989 194.16C255.865 194.362 255.803 194.583 255.803 194.824C255.803 195 255.836 195.16 255.901 195.303C255.972 195.439 256.09 195.566 256.252 195.684C256.415 195.794 256.636 195.898 256.916 195.996C257.203 196.094 257.561 196.188 257.991 196.279C258.798 196.449 259.491 196.667 260.071 196.934C260.657 197.194 261.106 197.533 261.418 197.949C261.731 198.359 261.887 198.88 261.887 199.512C261.887 199.98 261.786 200.41 261.584 200.801C261.389 201.185 261.103 201.52 260.725 201.807C260.347 202.087 259.895 202.305 259.368 202.461C258.847 202.617 258.261 202.695 257.61 202.695C256.653 202.695 255.842 202.526 255.178 202.188C254.514 201.842 254.01 201.403 253.664 200.869C253.326 200.329 253.157 199.769 253.157 199.189H255.432C255.458 199.626 255.579 199.974 255.793 200.234C256.015 200.488 256.288 200.674 256.614 200.791C256.946 200.902 257.288 200.957 257.639 200.957C258.062 200.957 258.417 200.902 258.704 200.791C258.99 200.674 259.208 200.518 259.358 200.322C259.508 200.12 259.582 199.893 259.582 199.639ZM270.025 199.639C270.025 199.404 269.967 199.193 269.85 199.004C269.732 198.809 269.508 198.633 269.176 198.477C268.85 198.32 268.368 198.177 267.73 198.047C267.171 197.923 266.656 197.777 266.188 197.607C265.725 197.432 265.328 197.22 264.996 196.973C264.664 196.725 264.407 196.432 264.225 196.094C264.042 195.755 263.951 195.365 263.951 194.922C263.951 194.492 264.046 194.085 264.234 193.701C264.423 193.317 264.693 192.979 265.045 192.686C265.396 192.393 265.823 192.161 266.324 191.992C266.832 191.823 267.398 191.738 268.023 191.738C268.909 191.738 269.667 191.888 270.299 192.188C270.937 192.48 271.425 192.881 271.764 193.389C272.102 193.89 272.271 194.456 272.271 195.088H269.918C269.918 194.808 269.846 194.548 269.703 194.307C269.566 194.059 269.358 193.861 269.078 193.711C268.798 193.555 268.447 193.477 268.023 193.477C267.62 193.477 267.285 193.542 267.018 193.672C266.757 193.796 266.562 193.958 266.432 194.16C266.308 194.362 266.246 194.583 266.246 194.824C266.246 195 266.279 195.16 266.344 195.303C266.415 195.439 266.533 195.566 266.695 195.684C266.858 195.794 267.079 195.898 267.359 195.996C267.646 196.094 268.004 196.188 268.434 196.279C269.241 196.449 269.934 196.667 270.514 196.934C271.1 197.194 271.549 197.533 271.861 197.949C272.174 198.359 272.33 198.88 272.33 199.512C272.33 199.98 272.229 200.41 272.027 200.801C271.832 201.185 271.546 201.52 271.168 201.807C270.79 202.087 270.338 202.305 269.811 202.461C269.29 202.617 268.704 202.695 268.053 202.695C267.096 202.695 266.285 202.526 265.621 202.188C264.957 201.842 264.452 201.403 264.107 200.869C263.769 200.329 263.6 199.769 263.6 199.189H265.875C265.901 199.626 266.021 199.974 266.236 200.234C266.458 200.488 266.731 200.674 267.057 200.791C267.389 200.902 267.73 200.957 268.082 200.957C268.505 200.957 268.86 200.902 269.146 200.791C269.433 200.674 269.651 200.518 269.801 200.322C269.951 200.12 270.025 199.893 270.025 199.639ZM277.724 202.5H275.371V190.918C275.371 190.13 275.517 189.469 275.81 188.936C276.11 188.395 276.536 187.988 277.089 187.715C277.643 187.435 278.297 187.295 279.052 187.295C279.287 187.295 279.518 187.311 279.746 187.344C279.974 187.37 280.195 187.412 280.41 187.471L280.351 189.287C280.221 189.255 280.078 189.232 279.921 189.219C279.772 189.206 279.609 189.199 279.433 189.199C279.075 189.199 278.766 189.268 278.505 189.404C278.252 189.535 278.056 189.727 277.92 189.98C277.789 190.234 277.724 190.547 277.724 190.918V202.5ZM279.902 191.934V193.652H273.75V191.934H279.902ZM288.118 200.01V191.934H290.482V202.5H288.255L288.118 200.01ZM288.45 197.812L289.241 197.793C289.241 198.503 289.163 199.157 289.007 199.756C288.851 200.348 288.61 200.866 288.284 201.309C287.959 201.745 287.542 202.087 287.034 202.334C286.527 202.575 285.918 202.695 285.208 202.695C284.694 202.695 284.222 202.62 283.792 202.471C283.362 202.321 282.991 202.09 282.679 201.777C282.373 201.465 282.135 201.058 281.966 200.557C281.797 200.055 281.712 199.456 281.712 198.76V191.934H284.066V198.779C284.066 199.163 284.111 199.486 284.202 199.746C284.293 200 284.417 200.205 284.573 200.361C284.73 200.518 284.912 200.628 285.12 200.693C285.329 200.758 285.55 200.791 285.784 200.791C286.455 200.791 286.982 200.661 287.366 200.4C287.757 200.133 288.034 199.775 288.196 199.326C288.366 198.877 288.45 198.372 288.45 197.812ZM295.563 187.5V202.5H293.2V187.5H295.563ZM301.006 188.281L300.772 198.311H298.76L298.516 188.281H301.006ZM298.448 201.387C298.448 201.029 298.565 200.729 298.799 200.488C299.04 200.241 299.372 200.117 299.795 200.117C300.212 200.117 300.541 200.241 300.782 200.488C301.023 200.729 301.143 201.029 301.143 201.387C301.143 201.732 301.023 202.028 300.782 202.275C300.541 202.516 300.212 202.637 299.795 202.637C299.372 202.637 299.04 202.516 298.799 202.275C298.565 202.028 298.448 201.732 298.448 201.387Z" fill="#667085"/>
</g>
</g>
<path d="M209.5 501.5C209.5 500.119 208.381 499 207 499C205.619 499 204.5 500.119 204.5 501.5H209.5ZM1369.27 21.2322C1368.29 20.2559 1366.71 20.2559 1365.73 21.2322L1349.82 37.1421C1348.85 38.1184 1348.85 39.7014 1349.82 40.6777C1350.8 41.654 1352.38 41.654 1353.36 40.6777L1367.5 26.5355L1381.64 40.6777C1382.62 41.654 1384.2 41.654 1385.18 40.6777C1386.15 39.7014 1386.15 38.1184 1385.18 37.1421L1369.27 21.2322ZM204.5 501.5V550H209.5V501.5H204.5ZM231 576.5H1343.5V571.5H231V576.5ZM1370 550V23H1365V550H1370ZM1343.5 576.5C1358.14 576.5 1370 564.636 1370 550H1365C1365 561.874 1355.37 571.5 1343.5 571.5V576.5ZM204.5 550C204.5 564.636 216.364 576.5 231 576.5V571.5C219.126 571.5 209.5 561.874 209.5 550H204.5Z" fill="#0086C9"/>
<defs>
<clipPath id="clip0_1272_59221">
<rect width="1440" height="1024" fill="white" transform="translate(-513 -384)"/>
</clipPath>
<clipPath id="clip1_1272_59221">
<rect x="-73" y="-39.5" width="560" height="537" rx="16" fill="white"/>
</clipPath>
<clipPath id="clip2_1272_59221">
<rect width="160" height="160" fill="white" transform="translate(127 0.5)"/>
</clipPath>
</defs>
</svg>
