<svg width="414" height="207" viewBox="0 0 414 207" fill="none" xmlns="http://www.w3.org/2000/svg">
<g clip-path="url(#clip0_3583_11881)">
<path d="M128.404 81.4035C127.629 81.4035 127 80.7744 127 80C127 35.8882 162.888 0 207 0C207.774 0 208.404 0.629112 208.404 1.40351C208.404 2.17791 207.774 2.80702 207 2.80702C164.437 2.80702 129.807 37.4342 129.807 80C129.807 80.7744 129.178 81.4035 128.404 81.4035Z" fill="#344054"/>
<path d="M215.421 2.80702H212.614C211.84 2.80702 211.211 2.17791 211.211 1.40351C211.211 0.629112 211.84 0 212.614 0H215.421C216.196 0 216.825 0.629112 216.825 1.40351C216.825 2.17791 216.196 2.80702 215.421 2.80702Z" fill="#344054"/>
<path d="M206.999 160C206.225 160 205.596 159.371 205.596 158.597C205.596 157.822 206.225 157.193 206.999 157.193C249.562 157.193 284.192 122.566 284.192 80.0002C284.192 79.2258 284.821 78.5967 285.596 78.5967C286.37 78.5967 286.999 79.2258 286.999 80.0002C286.999 124.112 251.111 160 206.999 160Z" fill="#344054"/>
<path d="M201.386 160H198.579C197.805 160 197.176 159.371 197.176 158.597C197.176 157.822 197.805 157.193 198.579 157.193H201.386C202.161 157.193 202.79 157.822 202.79 158.597C202.79 159.371 202.161 160 201.386 160Z" fill="#344054"/>
<path d="M207 148.772C169.078 148.772 138.229 117.92 138.229 80.0004C138.229 42.081 169.078 11.2285 207 11.2285C244.923 11.2285 275.772 42.081 275.772 80.0004C275.772 117.92 244.923 148.772 207 148.772ZM207 14.0355C170.627 14.0355 141.036 43.6271 141.036 80.0004C141.036 116.374 170.627 145.965 207 145.965C243.374 145.965 272.965 116.374 272.965 80.0004C272.965 43.6271 243.374 14.0355 207 14.0355Z" fill="#344054"/>
<path d="M207.001 29.4736C179.097 29.4736 156.475 52.0956 156.475 79.9999C156.475 107.904 179.097 130.526 207.001 130.526C234.905 130.526 257.527 107.904 257.527 79.9999C257.527 52.0956 234.905 29.4736 207.001 29.4736Z" fill="#F97066"/>
<path d="M207 131.93C178.365 131.93 155.07 108.635 155.07 80.0001C155.07 51.3653 178.365 28.0703 207 28.0703C235.635 28.0703 258.93 51.3653 258.93 80.0001C258.93 108.635 235.635 131.93 207 131.93ZM207 30.8773C179.915 30.8773 157.877 52.9154 157.877 80.0001C157.877 107.085 179.915 129.123 207 129.123C234.085 129.123 256.123 107.085 256.123 80.0001C256.123 52.9154 234.085 30.8773 207 30.8773Z" fill="#344054"/>
<path d="M265.948 8.42128H254.72C253.946 8.42128 253.316 7.79216 253.316 7.01777C253.316 6.24337 253.946 5.61426 254.72 5.61426H265.948C266.722 5.61426 267.351 6.24337 267.351 7.01777C267.351 7.79216 266.722 8.42128 265.948 8.42128Z" fill="#344054"/>
<path d="M260.333 14.0351C259.559 14.0351 258.93 13.406 258.93 12.6316V1.40351C258.93 0.629112 259.559 0 260.333 0C261.108 0 261.737 0.629112 261.737 1.40351V12.6316C261.737 13.406 261.108 14.0351 260.333 14.0351Z" fill="#344054"/>
<path d="M285.596 26.6664H274.368C273.594 26.6664 272.965 26.0373 272.965 25.2629C272.965 24.4885 273.594 23.8594 274.368 23.8594H285.596C286.371 23.8594 287 24.4885 287 25.2629C287 26.0373 286.371 26.6664 285.596 26.6664Z" fill="#344054"/>
<path d="M279.982 32.2812C279.207 32.2812 278.578 31.6521 278.578 30.8777V19.6496C278.578 18.8752 279.207 18.2461 279.982 18.2461C280.756 18.2461 281.385 18.8752 281.385 19.6496V30.8777C281.385 31.6521 280.756 32.2812 279.982 32.2812Z" fill="#344054"/>
<path d="M224.863 56.1828L207 74.046L189.137 56.1828C187.491 54.538 184.828 54.538 183.183 56.1828C181.538 57.8275 181.538 60.4906 183.183 62.1367L201.046 79.9999L183.183 97.8631C181.538 99.5093 181.538 102.172 183.183 103.817C184.828 105.462 187.491 105.462 189.137 103.817L207 85.9539L224.863 103.817C226.509 105.462 229.172 105.462 230.817 103.817C232.462 102.172 232.462 99.5093 230.817 97.8631L212.954 79.9999L230.817 62.1367C232.462 60.4906 232.462 57.8275 230.817 56.1828C229.175 54.538 226.509 54.538 224.863 56.1828Z" fill="white"/>
<path d="M186.159 106.453C184.721 106.453 183.283 105.906 182.19 104.811C181.129 103.75 180.545 102.341 180.545 100.842C180.545 99.3411 181.129 97.9321 182.19 96.874L199.062 80.0004L182.19 63.1267C181.129 62.0686 180.545 60.6596 180.545 59.1588C180.545 57.6594 181.129 56.2504 182.19 55.1895C184.376 53.002 187.941 53.002 190.127 55.1895L207.001 72.0618L223.874 55.1895C226.058 53.002 229.622 52.9993 231.811 55.1895C232.872 56.2504 233.456 57.6594 233.456 59.1588C233.456 60.6596 232.872 62.0686 231.811 63.1267L214.939 80.0004L231.811 96.874C232.872 97.9321 233.456 99.3411 233.456 100.842C233.456 102.341 232.872 103.75 231.811 104.811C229.628 106.996 226.063 106.999 223.874 104.811L207.001 87.939L190.127 104.811C189.036 105.906 187.595 106.453 186.159 106.453ZM186.159 56.3545C185.439 56.3545 184.721 56.6259 184.174 57.1742C183.647 57.7046 183.352 58.4091 183.352 59.1588C183.352 59.9072 183.644 60.6117 184.174 61.1435L202.038 79.0067C202.584 79.5535 202.584 80.4444 202.038 80.9913L184.174 98.8545C183.647 99.385 183.352 100.091 183.352 100.839C183.352 101.589 183.644 102.293 184.174 102.824C185.271 103.919 187.046 103.919 188.144 102.824L206.007 84.9606C206.554 84.4124 207.445 84.4124 207.991 84.9606L225.855 102.824C226.953 103.919 228.727 103.919 229.824 102.824C230.352 102.293 230.646 101.589 230.646 100.839C230.646 100.091 230.354 99.385 229.824 98.8545L211.961 80.9913C211.413 80.4444 211.413 79.5535 211.961 79.0067L229.824 61.1435C230.352 60.6117 230.646 59.9072 230.646 59.1588C230.646 58.4091 230.354 57.7046 229.824 57.1742C228.727 56.079 226.953 56.079 225.855 57.1742L207.991 75.0374C207.445 75.5842 206.554 75.5842 206.007 75.0374L188.144 57.1742C187.595 56.6259 186.877 56.3545 186.159 56.3545Z" fill="#344054"/>
</g>
<path d="M143.128 196.697H139.427V194.754H143.128C143.772 194.754 144.293 194.65 144.69 194.441C145.087 194.233 145.377 193.947 145.559 193.582C145.748 193.211 145.843 192.788 145.843 192.312C145.843 191.863 145.748 191.443 145.559 191.053C145.377 190.656 145.087 190.337 144.69 190.096C144.293 189.855 143.772 189.734 143.128 189.734H140.179V202H137.727V187.781H143.128C144.228 187.781 145.162 187.977 145.93 188.367C146.705 188.751 147.294 189.285 147.698 189.969C148.102 190.646 148.304 191.421 148.304 192.293C148.304 193.211 148.102 193.999 147.698 194.656C147.294 195.314 146.705 195.818 145.93 196.17C145.162 196.521 144.228 196.697 143.128 196.697ZM156.256 199.881V194.842C156.256 194.464 156.188 194.139 156.051 193.865C155.914 193.592 155.706 193.38 155.426 193.23C155.153 193.081 154.808 193.006 154.391 193.006C154.007 193.006 153.675 193.071 153.395 193.201C153.115 193.331 152.897 193.507 152.741 193.729C152.584 193.95 152.506 194.201 152.506 194.48H150.162C150.162 194.064 150.263 193.66 150.465 193.27C150.667 192.879 150.96 192.531 151.344 192.225C151.728 191.919 152.187 191.678 152.721 191.502C153.255 191.326 153.854 191.238 154.518 191.238C155.312 191.238 156.015 191.372 156.627 191.639C157.246 191.906 157.731 192.309 158.082 192.85C158.44 193.383 158.62 194.054 158.62 194.861V199.559C158.62 200.04 158.652 200.473 158.717 200.857C158.789 201.235 158.89 201.564 159.02 201.844V202H156.608C156.497 201.746 156.409 201.424 156.344 201.033C156.286 200.636 156.256 200.252 156.256 199.881ZM156.598 195.574L156.618 197.029H154.928C154.492 197.029 154.108 197.072 153.776 197.156C153.444 197.234 153.167 197.352 152.946 197.508C152.724 197.664 152.558 197.853 152.448 198.074C152.337 198.296 152.282 198.546 152.282 198.826C152.282 199.106 152.347 199.363 152.477 199.598C152.607 199.826 152.796 200.005 153.043 200.135C153.297 200.265 153.603 200.33 153.961 200.33C154.443 200.33 154.863 200.232 155.221 200.037C155.586 199.835 155.872 199.591 156.08 199.305C156.289 199.012 156.399 198.735 156.412 198.475L157.174 199.52C157.096 199.786 156.963 200.073 156.774 200.379C156.585 200.685 156.338 200.978 156.032 201.258C155.732 201.531 155.371 201.756 154.948 201.932C154.531 202.107 154.049 202.195 153.502 202.195C152.812 202.195 152.197 202.059 151.657 201.785C151.116 201.505 150.693 201.131 150.387 200.662C150.081 200.187 149.928 199.65 149.928 199.051C149.928 198.491 150.032 197.996 150.241 197.566C150.455 197.13 150.768 196.766 151.178 196.473C151.595 196.18 152.103 195.958 152.702 195.809C153.301 195.652 153.984 195.574 154.752 195.574H156.598ZM164.141 200.848L167.012 191.434H169.531L165.293 203.611C165.195 203.872 165.068 204.155 164.912 204.461C164.756 204.767 164.551 205.057 164.297 205.33C164.049 205.61 163.74 205.835 163.369 206.004C162.998 206.18 162.549 206.268 162.021 206.268C161.813 206.268 161.611 206.248 161.416 206.209C161.227 206.176 161.048 206.141 160.879 206.102L160.869 204.305C160.934 204.311 161.012 204.318 161.104 204.324C161.201 204.331 161.279 204.334 161.338 204.334C161.729 204.334 162.054 204.285 162.314 204.188C162.575 204.096 162.786 203.947 162.949 203.738C163.118 203.53 163.262 203.25 163.379 202.898L164.141 200.848ZM162.52 191.434L165.029 199.344L165.449 201.824L163.818 202.244L159.98 191.434H162.52ZM173.382 193.582V202H171.029V191.434H173.246L173.382 193.582ZM173.002 196.326L172.201 196.316C172.201 195.587 172.292 194.913 172.474 194.295C172.657 193.676 172.923 193.139 173.275 192.684C173.627 192.221 174.063 191.867 174.584 191.619C175.111 191.365 175.72 191.238 176.41 191.238C176.892 191.238 177.331 191.31 177.728 191.453C178.132 191.59 178.48 191.808 178.773 192.107C179.073 192.407 179.3 192.791 179.457 193.26C179.619 193.729 179.701 194.295 179.701 194.959V202H177.347V195.164C177.347 194.65 177.269 194.246 177.113 193.953C176.963 193.66 176.745 193.452 176.459 193.328C176.179 193.198 175.843 193.133 175.453 193.133C175.01 193.133 174.632 193.217 174.32 193.387C174.014 193.556 173.763 193.787 173.568 194.08C173.373 194.373 173.229 194.712 173.138 195.096C173.047 195.48 173.002 195.89 173.002 196.326ZM179.554 195.701L178.451 195.945C178.451 195.307 178.539 194.705 178.714 194.139C178.897 193.566 179.16 193.064 179.505 192.635C179.857 192.199 180.29 191.857 180.804 191.609C181.319 191.362 181.908 191.238 182.572 191.238C183.112 191.238 183.594 191.313 184.017 191.463C184.447 191.606 184.811 191.834 185.111 192.146C185.41 192.459 185.638 192.866 185.795 193.367C185.951 193.862 186.029 194.461 186.029 195.164V202H183.666V195.154C183.666 194.62 183.587 194.207 183.431 193.914C183.282 193.621 183.067 193.419 182.787 193.309C182.507 193.191 182.171 193.133 181.781 193.133C181.416 193.133 181.094 193.201 180.814 193.338C180.541 193.468 180.309 193.654 180.121 193.895C179.932 194.129 179.789 194.399 179.691 194.705C179.6 195.011 179.554 195.343 179.554 195.701ZM193.259 202.195C192.478 202.195 191.771 202.068 191.14 201.814C190.515 201.554 189.981 201.193 189.538 200.73C189.102 200.268 188.767 199.725 188.532 199.1C188.298 198.475 188.181 197.801 188.181 197.078V196.688C188.181 195.861 188.301 195.112 188.542 194.441C188.783 193.771 189.118 193.198 189.548 192.723C189.978 192.241 190.486 191.873 191.071 191.619C191.657 191.365 192.292 191.238 192.976 191.238C193.731 191.238 194.392 191.365 194.958 191.619C195.525 191.873 195.993 192.231 196.364 192.693C196.742 193.149 197.022 193.693 197.204 194.324C197.393 194.956 197.487 195.652 197.487 196.414V197.42H189.323V195.73H195.163V195.545C195.15 195.122 195.066 194.725 194.909 194.354C194.76 193.982 194.529 193.683 194.216 193.455C193.904 193.227 193.487 193.113 192.966 193.113C192.575 193.113 192.227 193.198 191.921 193.367C191.622 193.53 191.371 193.768 191.169 194.08C190.967 194.393 190.811 194.77 190.7 195.213C190.596 195.649 190.544 196.141 190.544 196.688V197.078C190.544 197.54 190.606 197.97 190.73 198.367C190.86 198.758 191.049 199.1 191.296 199.393C191.543 199.686 191.843 199.917 192.195 200.086C192.546 200.249 192.946 200.33 193.396 200.33C193.962 200.33 194.467 200.216 194.909 199.988C195.352 199.76 195.736 199.438 196.062 199.021L197.302 200.223C197.074 200.555 196.778 200.874 196.413 201.18C196.049 201.479 195.603 201.723 195.075 201.912C194.555 202.101 193.949 202.195 193.259 202.195ZM201.807 193.689V202H199.454V191.434H201.671L201.807 193.689ZM201.387 196.326L200.626 196.316C200.632 195.568 200.736 194.881 200.938 194.256C201.147 193.631 201.433 193.094 201.798 192.645C202.169 192.195 202.611 191.85 203.126 191.609C203.64 191.362 204.213 191.238 204.845 191.238C205.352 191.238 205.811 191.31 206.221 191.453C206.638 191.59 206.993 191.814 207.286 192.127C207.585 192.439 207.813 192.846 207.97 193.348C208.126 193.842 208.204 194.451 208.204 195.174V202H205.841V195.164C205.841 194.656 205.766 194.256 205.616 193.963C205.473 193.663 205.261 193.452 204.981 193.328C204.708 193.198 204.366 193.133 203.956 193.133C203.552 193.133 203.191 193.217 202.872 193.387C202.553 193.556 202.283 193.787 202.061 194.08C201.846 194.373 201.68 194.712 201.563 195.096C201.446 195.48 201.387 195.89 201.387 196.326ZM215.6 191.434V193.152H209.643V191.434H215.6ZM211.362 188.846H213.715V199.08C213.715 199.406 213.761 199.656 213.852 199.832C213.95 200.001 214.083 200.115 214.252 200.174C214.422 200.232 214.62 200.262 214.848 200.262C215.011 200.262 215.167 200.252 215.317 200.232C215.467 200.213 215.587 200.193 215.678 200.174L215.688 201.971C215.493 202.029 215.265 202.081 215.004 202.127C214.75 202.173 214.457 202.195 214.125 202.195C213.585 202.195 213.107 202.101 212.69 201.912C212.273 201.717 211.948 201.401 211.713 200.965C211.479 200.529 211.362 199.949 211.362 199.227V188.846ZM225.88 202H223.527V190.418C223.527 189.63 223.673 188.969 223.966 188.436C224.266 187.895 224.692 187.488 225.246 187.215C225.799 186.935 226.453 186.795 227.209 186.795C227.443 186.795 227.674 186.811 227.902 186.844C228.13 186.87 228.351 186.912 228.566 186.971L228.507 188.787C228.377 188.755 228.234 188.732 228.078 188.719C227.928 188.706 227.765 188.699 227.589 188.699C227.231 188.699 226.922 188.768 226.662 188.904C226.408 189.035 226.212 189.227 226.076 189.48C225.946 189.734 225.88 190.047 225.88 190.418V202ZM228.058 191.434V193.152H221.906V191.434H228.058ZM235.874 199.881V194.842C235.874 194.464 235.806 194.139 235.669 193.865C235.532 193.592 235.324 193.38 235.044 193.23C234.771 193.081 234.426 193.006 234.009 193.006C233.625 193.006 233.293 193.071 233.013 193.201C232.733 193.331 232.515 193.507 232.359 193.729C232.202 193.95 232.124 194.201 232.124 194.48H229.78C229.78 194.064 229.881 193.66 230.083 193.27C230.285 192.879 230.578 192.531 230.962 192.225C231.346 191.919 231.805 191.678 232.339 191.502C232.873 191.326 233.472 191.238 234.136 191.238C234.93 191.238 235.633 191.372 236.245 191.639C236.864 191.906 237.349 192.309 237.7 192.85C238.058 193.383 238.237 194.054 238.237 194.861V199.559C238.237 200.04 238.27 200.473 238.335 200.857C238.407 201.235 238.508 201.564 238.638 201.844V202H236.226C236.115 201.746 236.027 201.424 235.962 201.033C235.904 200.636 235.874 200.252 235.874 199.881ZM236.216 195.574L236.236 197.029H234.546C234.11 197.029 233.726 197.072 233.394 197.156C233.062 197.234 232.785 197.352 232.564 197.508C232.342 197.664 232.176 197.853 232.066 198.074C231.955 198.296 231.9 198.546 231.9 198.826C231.9 199.106 231.965 199.363 232.095 199.598C232.225 199.826 232.414 200.005 232.661 200.135C232.915 200.265 233.221 200.33 233.579 200.33C234.061 200.33 234.481 200.232 234.839 200.037C235.204 199.835 235.49 199.591 235.698 199.305C235.907 199.012 236.017 198.735 236.03 198.475L236.792 199.52C236.714 199.786 236.581 200.073 236.392 200.379C236.203 200.685 235.956 200.978 235.65 201.258C235.35 201.531 234.989 201.756 234.566 201.932C234.149 202.107 233.667 202.195 233.12 202.195C232.43 202.195 231.815 202.059 231.275 201.785C230.734 201.505 230.311 201.131 230.005 200.662C229.699 200.187 229.546 199.65 229.546 199.051C229.546 198.491 229.65 197.996 229.859 197.566C230.073 197.13 230.386 196.766 230.796 196.473C231.213 196.18 231.721 195.958 232.32 195.809C232.918 195.652 233.602 195.574 234.37 195.574H236.216ZM243.368 191.434V202H241.005V191.434H243.368ZM240.848 188.66C240.848 188.302 240.966 188.006 241.2 187.771C241.441 187.531 241.773 187.41 242.196 187.41C242.613 187.41 242.942 187.531 243.182 187.771C243.423 188.006 243.544 188.302 243.544 188.66C243.544 189.012 243.423 189.305 243.182 189.539C242.942 189.773 242.613 189.891 242.196 189.891C241.773 189.891 241.441 189.773 241.2 189.539C240.966 189.305 240.848 189.012 240.848 188.66ZM248.616 187V202H246.252V187H248.616ZM256.002 202.195C255.221 202.195 254.514 202.068 253.883 201.814C253.258 201.554 252.724 201.193 252.281 200.73C251.845 200.268 251.51 199.725 251.275 199.1C251.041 198.475 250.924 197.801 250.924 197.078V196.688C250.924 195.861 251.044 195.112 251.285 194.441C251.526 193.771 251.861 193.198 252.291 192.723C252.721 192.241 253.229 191.873 253.814 191.619C254.4 191.365 255.035 191.238 255.719 191.238C256.474 191.238 257.135 191.365 257.701 191.619C258.268 191.873 258.736 192.231 259.107 192.693C259.485 193.149 259.765 193.693 259.947 194.324C260.136 194.956 260.23 195.652 260.23 196.414V197.42H252.066V195.73H257.906V195.545C257.893 195.122 257.809 194.725 257.652 194.354C257.503 193.982 257.271 193.683 256.959 193.455C256.646 193.227 256.23 193.113 255.709 193.113C255.318 193.113 254.97 193.198 254.664 193.367C254.365 193.53 254.114 193.768 253.912 194.08C253.71 194.393 253.554 194.77 253.443 195.213C253.339 195.649 253.287 196.141 253.287 196.688V197.078C253.287 197.54 253.349 197.97 253.473 198.367C253.603 198.758 253.792 199.1 254.039 199.393C254.286 199.686 254.586 199.917 254.938 200.086C255.289 200.249 255.689 200.33 256.139 200.33C256.705 200.33 257.21 200.216 257.652 199.988C258.095 199.76 258.479 199.438 258.805 199.021L260.045 200.223C259.817 200.555 259.521 200.874 259.156 201.18C258.792 201.479 258.346 201.723 257.818 201.912C257.298 202.101 256.692 202.195 256.002 202.195ZM268.662 199.812V187H271.025V202H268.886L268.662 199.812ZM261.787 196.834V196.629C261.787 195.828 261.881 195.099 262.07 194.441C262.259 193.777 262.532 193.208 262.89 192.732C263.248 192.251 263.684 191.883 264.199 191.629C264.713 191.368 265.293 191.238 265.937 191.238C266.575 191.238 267.135 191.362 267.617 191.609C268.099 191.857 268.509 192.212 268.847 192.674C269.186 193.13 269.456 193.676 269.658 194.314C269.86 194.946 270.003 195.649 270.087 196.424V197.078C270.003 197.833 269.86 198.523 269.658 199.148C269.456 199.773 269.186 200.314 268.847 200.77C268.509 201.225 268.095 201.577 267.607 201.824C267.125 202.072 266.562 202.195 265.918 202.195C265.28 202.195 264.703 202.062 264.189 201.795C263.681 201.528 263.248 201.154 262.89 200.672C262.532 200.19 262.259 199.624 262.07 198.973C261.881 198.315 261.787 197.602 261.787 196.834ZM264.14 196.629V196.834C264.14 197.316 264.183 197.765 264.267 198.182C264.358 198.598 264.498 198.966 264.687 199.285C264.876 199.598 265.12 199.845 265.42 200.027C265.726 200.203 266.09 200.291 266.513 200.291C267.047 200.291 267.487 200.174 267.832 199.939C268.177 199.705 268.447 199.389 268.642 198.992C268.844 198.589 268.981 198.139 269.052 197.645V195.877C269.013 195.493 268.932 195.135 268.808 194.803C268.691 194.471 268.532 194.181 268.33 193.934C268.128 193.68 267.877 193.484 267.578 193.348C267.285 193.204 266.936 193.133 266.533 193.133C266.103 193.133 265.739 193.224 265.439 193.406C265.14 193.589 264.892 193.839 264.697 194.158C264.508 194.477 264.368 194.848 264.277 195.271C264.186 195.695 264.14 196.147 264.14 196.629ZM276.351 187.781L276.116 197.811H274.105L273.861 187.781H276.351ZM273.792 200.887C273.792 200.529 273.909 200.229 274.144 199.988C274.385 199.741 274.717 199.617 275.14 199.617C275.556 199.617 275.885 199.741 276.126 199.988C276.367 200.229 276.487 200.529 276.487 200.887C276.487 201.232 276.367 201.528 276.126 201.775C275.885 202.016 275.556 202.137 275.14 202.137C274.717 202.137 274.385 202.016 274.144 201.775C273.909 201.528 273.792 201.232 273.792 200.887Z" fill="#667085"/>
<defs>
<clipPath id="clip0_3583_11881">
<rect width="160" height="160" fill="white" transform="translate(127)"/>
</clipPath>
</defs>
</svg>
