<svg width="86" height="86" viewBox="0 0 86 86" fill="none" xmlns="http://www.w3.org/2000/svg">
<circle cx="43" cy="43" r="42.5" fill="#12B76A" stroke="#12B76A"/>
<path d="M52.112 44.812L51.202 45.718C51.202 45.718 49.036 47.87 43.126 41.994C37.216 36.118 39.382 33.966 39.382 33.966L39.954 33.394C41.368 31.99 41.502 29.734 40.268 28.086L37.748 24.72C36.22 22.68 33.27 22.41 31.52 24.15L28.38 27.27C27.514 28.134 26.934 29.25 27.004 30.49C27.184 33.664 28.62 40.49 36.628 48.454C45.122 56.898 53.092 57.234 56.35 56.93C57.382 56.834 58.278 56.31 59 55.59L61.84 52.766C63.76 50.86 63.22 47.59 60.764 46.256L56.944 44.178C55.332 43.304 53.372 43.56 52.112 44.812Z" fill="white"/>
</svg>
